HIERARCHY
ROOT Bip001_Pelvis
{
  OFFSET 33.2923 95.8902 -28.781
  CHANNELS 6 Xposition Yposition Zposition Zrotation Xrotation Yrotation
  JOINT Bip001_Spine
  {
    OFFSET 1.4188e-005 10.2191 -0.0116013
    CHANNELS 3 Zrotation Xrotation Yrotation
    JOINT Bip001_L_Thigh
    {
      OFFSET 11.0458 -10.2192 0.0116197
      CHANNELS 3 Zrotation Xrotation Yrotation
      JOINT Bip001_L_Calf
      {
        OFFSET -0.707118 -44.0221 0.360014
        CHANNELS 3 Zrotation Xrotation Yrotation
        JOINT Bip001_L_Foot
        {
          OFFSET -0.651902 -40.5938 -3.56146
          CHANNELS 3 Zrotation Xrotation Yrotation
          JOINT Bip001_L_Toe0
          {
            OFFSET 0.0530839 -10.2181 13.1504
            CHANNELS 3 Zrotation Xrotation Yrotation
            End Site
            {
              OFFSET -1.02532e-005 0 7.55606
            }
          }
        }
      }
    }
    JOINT Bip001_R_Thigh
    {
      OFFSET -11.0458 -10.2191 0.0115893
      CHANNELS 3 Zrotation Xrotation Yrotation
      JOINT Bip001_R_Calf
      {
        OFFSET 0.706994 -44.0221 0.35984
        CHANNELS 3 Zrotation Xrotation Yrotation
        JOINT Bip001_R_Foot
        {
          OFFSET 0.651786 -40.5938 -3.5613
          CHANNELS 3 Zrotation Xrotation Yrotation
          JOINT Bip001_R_Toe0
          {
            OFFSET -0.0531479 -10.2181 13.1504
            CHANNELS 3 Zrotation Xrotation Yrotation
            End Site
            {
              OFFSET -1.02894e-005 0 7.55606
            }
          }
        }
      }
    }
    JOINT Bip001_Spine1
    {
      OFFSET 1.87041e-005 14.5736 1.08638
      CHANNELS 3 Zrotation Xrotation Yrotation
      JOINT Bip001_Spine2
      {
        OFFSET 2.24614e-005 14.5058 -1.69078
        CHANNELS 3 Zrotation Xrotation Yrotation
        JOINT Bip001_Neck
        {
          OFFSET 2.20278e-005 15.3945 -0.489414
          CHANNELS 3 Zrotation Xrotation Yrotation
          JOINT Bip001_L_Clavicle
          {
            OFFSET 6.06036 -0.000579998 0.00836775
            CHANNELS 3 Zrotation Xrotation Yrotation
            JOINT Bip001_L_UpperArm
            {
              OFFSET 11.5509 -0.0600302 0.00193952
              CHANNELS 3 Zrotation Xrotation Yrotation
              JOINT Bip001_L_Forearm
              {
                OFFSET 25.9523 0.0806089 -2.15551
                CHANNELS 3 Zrotation Xrotation Yrotation
                JOINT Bip001_L_Hand
                {
                  OFFSET 32.2476 0.153767 1.63968
                  CHANNELS 3 Zrotation Xrotation Yrotation
                  JOINT Bip001_L_Finger0
                  {
                    OFFSET 6.04639 -2.20976 5.90322
                    CHANNELS 3 Zrotation Xrotation Yrotation
                    End Site
                    {
                      OFFSET 4.22376 -1.43895 0.606486
                    }
                  }
                  JOINT Bip001_L_Finger1
                  {
                    OFFSET 11.0826 -0.704819 -0.198153
                    CHANNELS 3 Zrotation Xrotation Yrotation
                    End Site
                    {
                      OFFSET 6.20028 -0.397518 -0.0787166
                    }
                  }
                }
              }
            }
          }
          JOINT Bip001_R_Clavicle
          {
            OFFSET -6.06036 -0.000563197 0.00835105
            CHANNELS 3 Zrotation Xrotation Yrotation
            JOINT Bip001_R_UpperArm
            {
              OFFSET -11.5509 -0.0599978 0.00190698
              CHANNELS 3 Zrotation Xrotation Yrotation
              JOINT Bip001_R_Forearm
              {
                OFFSET -25.9523 0.080682 -2.1559
                CHANNELS 3 Zrotation Xrotation Yrotation
                JOINT Bip001_R_Hand
                {
                  OFFSET -32.2476 0.153858 1.63991
                  CHANNELS 3 Zrotation Xrotation Yrotation
                  JOINT Bip001_R_Finger0
                  {
                    OFFSET -6.04641 -2.20974 5.90321
                    CHANNELS 3 Zrotation Xrotation Yrotation
                    End Site
                    {
                      OFFSET -4.22376 -1.43894 0.606474
                    }
                  }
                  JOINT Bip001_R_Finger1
                  {
                    OFFSET -11.0826 -0.704789 -0.198184
                    CHANNELS 3 Zrotation Xrotation Yrotation
                    End Site
                    {
                      OFFSET -6.20028 -0.397501 -0.0787338
                    }
                  }
                }
              }
            }
          }
          JOINT Bip001_Head
          {
            OFFSET 1.09673e-005 11.2744 2.05948
            CHANNELS 3 Zrotation Xrotation Yrotation
            End Site
            {
              OFFSET 2.89576e-005 20.8808 -2.77728e-005
            }
          }
        }
      }
    }
  }
}
MOTION
Frames:	5
Frame Time:	0.04
32.4846 95.8754 -28.8152 1.21445 -0.85967 0.811523 -0.283348 2.86253 -0.39283 4.01516 -2.70809 8.03905 0.147353 5.87381 -12.5498 4.67554 -0.785483 -0.206248 -3.15816 -4.86746 5.12718 -3.96863 -4.44482 0.304459 0.901793 12.0624 -0.000935375 -5.81061 -10.3375 1.40182 1.89261 -6.81215 2.38104 -0.544583 5.7447 -0.773536 -0.544682 5.74471 -0.772942 -1.37613 1.595 -2.12944 -22.6651 0.193475 -3.35304 -50.9494 41.0599 -1.10358 12.5391 0.154191 -23.4933 7.26782 0.777011 -1.58316 -3.18055e-015 0 1.59028e-015 0 0 -1.59028e-015 30.7375 7.15732 19.7781 40.544 40.5853 9.11373 -9.50292 -0.985562 8.10141 -6.37679 1.98155 2.2537 -3.18055e-015 6.36111e-015 -1.59028e-015 -1.76556e-031 6.36111e-015 1.59028e-015 3.06392 11.1194 -3.43586 
32.4675 95.8862 -28.8774 1.19807 -0.855877 0.764714 -0.281636 2.86252 -0.427123 4.02472 -2.69436 7.29121 0.0695631 5.74737 -11.7873 4.83844 -0.524182 -0.223982 -3.09503 -5.00209 5.07909 -3.95848 -4.46695 0.384001 0.969993 11.9957 0.039942 -5.80751 -10.2783 1.36834 1.89046 -6.77491 2.3759 -0.537799 5.74189 -0.841706 -0.537843 5.74191 -0.841671 -1.44777 1.66297 -1.9899 -22.5558 0.193441 -3.52381 -50.7629 41.0103 -1.32758 12.633 0.332795 -23.6521 7.44545 0.990597 -1.75869 -3.18055e-015 3.18055e-015 -0 -6.36111e-015 3.18056e-015 -0 30.7186 7.13066 20.0276 40.0483 41.0208 9.62952 -9.94129 -1.36975 8.62397 -6.52707 1.61228 2.49986 6.36111e-015 -6.36111e-015 -3.18055e-015 6.36111e-015 -3.18056e-015 -3.18055e-015 3.31145 10.9695 -3.39812 
32.4495 95.8822 -28.9302 1.18563 -0.841516 0.805956 -0.28102 2.85316 -0.44088 4.03269 -2.75118 7.1925 0.0867295 5.77828 -11.7339 4.81796 -0.530149 -0.221943 -3.12973 -4.99216 5.11288 -3.964 -4.48623 0.332496 1.00545 12.0009 0.0737397 -5.78354 -10.271 1.39749 1.885 -6.75296 2.33726 -0.54087 5.70838 -0.871284 -0.540869 5.70839 -0.871284 -1.44826 1.65687 -1.85639 -22.5481 0.265602 -3.6961 -50.5043 41.2048 -1.55794 12.8084 0.526977 -23.8665 7.55502 1.06048 -1.95596 -3.18055e-015 -3.18055e-015 -1.59028e-015 -3.18055e-015 3.18056e-015 -1.59028e-015 30.53 7.14902 20.2621 40.0976 41.7058 9.42457 -10.3161 -2.23935 9.52743 -6.71875 1.11636 2.4307 9.54166e-015 3.18055e-015 -1.59028e-015 6.36111e-015 0 -1.59028e-015 3.49886 10.875 -3.32557 
32.4392 95.8859 -28.9559 1.23112 -0.838085 0.787305 -0.298305 2.83857 -0.420321 3.98098 -2.69852 7.18578 0.110472 5.64846 -11.7789 4.9359 -0.347132 -0.2412 -3.12646 -5.08544 5.08107 -3.99811 -4.4994 0.31784 1.02241 12.0163 0.0764121 -5.78324 -10.2965 1.39376 1.88483 -6.74862 2.33728 -0.576856 5.67977 -0.828807 -0.576865 5.67978 -0.828526 -1.41549 1.68783 -1.75344 -22.5588 0.302167 -3.89611 -50.2091 41.178 -1.87929 12.9998 0.818307 -24.0302 7.56866 1.02719 -2.10789 1.27222e-014 0 -4.77083e-015 9.54166e-015 0 -4.77083e-015 30.4386 7.15202 20.463 40.4606 42.5616 8.82796 -10.8347 -3.23296 10.4197 -7.3111 0.433719 2.25739 -3.18055e-015 -9.54166e-015 -3.18055e-015 -3.53113e-031 -6.36111e-015 -3.18055e-015 3.6775 10.682 -3.26681 
32.4422 95.8898 -28.9757 1.32156 -0.829421 0.802687 -0.325975 2.81834 -0.416111 3.8737 -2.60771 7.38086 0.196372 5.4444 -11.9626 4.83858 -0.279388 -0.242017 -3.10622 -5.0216 5.08009 -4.07435 -4.54468 0.216247 1.0172 12.1194 0.0749402 -5.73 -10.3444 1.48111 1.88157 -6.70563 2.32761 -0.632812 5.6389 -0.809342 -0.633177 5.63891 -0.809369 -1.50313 1.74156 -1.59257 -22.412 0.295112 -4.00315 -49.9915 40.8833 -2.22114 12.8821 0.655314 -24.2215 7.7287 0.972191 -2.11002 -3.18055e-015 0 6.36111e-015 -6.36111e-015 -6.36111e-015 7.95139e-015 30.4738 7.08956 20.5663 40.9149 42.6332 8.46372 -11.1496 -3.09117 10.7391 -7.76507 0.491546 2.28069 -3.18055e-015 0 -0 0 3.18056e-015 -0 3.95363 10.4725 -3.2191 
